<?xml version="1.0" encoding="UTF-8"?>
<svg width="16px" height="16px" viewBox="0 0 16 16" version="1.1" xmlns="http://www.w3.org/2000/svg" xmlns:xlink="http://www.w3.org/1999/xlink">
    <title>icons8-linkedin</title>
    <g id="Symbols" stroke="none" stroke-width="1" fill="none" fill-rule="evenodd">
        <g id="Footer" transform="translate(-161.000000, -631.000000)" fill="#000000" fill-rule="nonzero">
            <g id="Group-2" transform="translate(100.000000, 630.000000)">
                <g id="icons8-linkedin" transform="translate(61.535458, 1.355333)">
                    <path d="M3.4465758,15.2696667 L0.29389406,15.2696667 L0.29389406,5.12551241 L3.4465758,5.12551241 L3.4465758,15.2696667 Z M1.83817376,3.67527881 C0.821834663,3.67527881 0,2.85130674 0,1.83710505 C0,0.822903369 0.822903369,0 1.83817376,0 C2.85130674,0 3.67527881,0.823972074 3.67527881,1.83710505 C3.67527881,2.85130674 2.85130674,3.67527881 1.83817376,3.67527881 Z M15.2557735,15.2696667 L12.1052292,15.2696667 L12.1052292,10.3365213 C12.1052292,9.15987633 12.0838551,7.6465891 10.4669034,7.6465891 C8.82644016,7.6465891 8.57422562,8.9279672 8.57422562,10.2510248 L8.57422562,15.2696667 L5.42368129,15.2696667 L5.42368129,5.12551241 L8.44811835,5.12551241 L8.44811835,6.51162367 L8.49086658,6.51162367 C8.91193661,5.71436924 9.94003147,4.87329787 11.4736241,4.87329787 C14.665848,4.87329787 15.2557735,6.97437323 15.2557735,9.70598493 L15.2557735,15.2696667 L15.2557735,15.2696667 Z" id="Shape"></path>
                </g>
            </g>
        </g>
    </g>
</svg>