<?xml version="1.0" standalone="no"?>
<!DOCTYPE svg PUBLIC "-//W3C//DTD SVG 20010904//EN"
 "http://www.w3.org/TR/2001/REC-SVG-20010904/DTD/svg10.dtd">
<svg version="1.0" xmlns="http://www.w3.org/2000/svg"
 width="385.000000pt" height="385.000000pt" viewBox="0 0 385.000000 385.000000"
 preserveAspectRatio="xMidYMid meet">
<metadata>
Created by potrace 1.14, written by Peter Selinger 2001-2017
</metadata>
<g transform="translate(0.000000,385.000000) scale(0.100000,-0.100000)"
fill="#000000" stroke="none">
<path d="M1227 3830 c-17 -9 -51 -45 -74 -79 -123 -181 -133 -507 -17 -560 22
-10 33 -8 68 9 97 47 175 231 178 418 1 92 -14 150 -47 190 -31 37 -66 44
-108 22z"/>
<path d="M1615 3467 c-83 -26 -171 -129 -211 -245 -24 -70 -25 -80 -29 -165
-8 -222 120 -340 272 -251 173 100 253 447 139 597 -47 61 -108 85 -171 64z"/>
<path d="M871 3165 c-85 -72 -103 -300 -33 -429 88 -162 233 -64 241 164 7
205 -107 350 -208 265z"/>
<path d="M2130 2980 c-108 -31 -205 -132 -256 -265 -66 -177 -40 -363 64 -457
95 -86 224 -73 334 34 106 103 153 224 152 389 -1 121 -56 234 -135 279 -42
23 -116 33 -159 20z"/>
<path d="M1205 2770 c-55 -22 -107 -114 -123 -211 -29 -184 61 -382 172 -382
88 0 161 108 173 257 16 209 -101 387 -222 336z"/>
<path d="M2655 2272 c-183 -63 -294 -212 -300 -402 -7 -229 174 -424 404 -435
382 -18 595 432 339 716 -107 120 -298 171 -443 121z"/>
<path d="M1555 2241 c-53 -24 -88 -64 -120 -133 -98 -214 0 -495 179 -515 144
-17 257 134 251 338 -4 139 -63 257 -155 305 -53 29 -101 30 -155 5z"/>
<path d="M1179 1693 c-124 -77 -129 -362 -10 -519 47 -62 93 -87 149 -81 148
15 196 286 87 485 -39 71 -63 95 -112 118 -42 18 -82 17 -114 -3z"/>
<path d="M1969 1539 c-95 -27 -159 -136 -154 -263 12 -292 306 -550 512 -449
223 111 133 534 -145 682 -70 36 -150 48 -213 30z"/>
<path d="M865 1244 c-83 -90 -31 -371 90 -486 153 -144 238 109 120 357 -65
136 -153 190 -210 129z"/>
<path d="M1505 1035 c-64 -35 -95 -94 -101 -194 -12 -223 162 -475 327 -473
102 2 163 89 162 232 -3 214 -150 427 -308 445 -36 4 -59 1 -80 -10z"/>
<path d="M1107 644 c-96 -110 8 -469 169 -582 66 -46 122 -30 149 42 21 53 16
160 -11 253 -19 66 -84 196 -117 233 -72 82 -147 103 -190 54z"/>
</g>
</svg>
