<?xml version="1.0" encoding="UTF-8"?>
<svg width="21px" height="18px" viewBox="0 0 21 18" version="1.1" xmlns="http://www.w3.org/2000/svg" xmlns:xlink="http://www.w3.org/1999/xlink">
    <title>icons8-twitter</title>
    <g id="Symbols" stroke="none" stroke-width="1" fill="none" fill-rule="evenodd">
        <g id="Footer" transform="translate(-125.000000, -630.000000)" fill="#000000" fill-rule="nonzero">
            <g id="Group-2" transform="translate(100.000000, 630.000000)">
                <g id="icons8-twitter" transform="translate(25.333333, 0.791667)">
                    <path d="M20.584125,1.97995833 C19.8265,2.31641667 19.0126667,2.54283333 18.1584583,2.64495833 C19.030875,2.12245833 19.6998333,1.29516667 20.0149167,0.30875 C19.1995,0.792458333 18.2954167,1.14395833 17.33275,1.33395833 C16.5624583,0.513 15.4652083,0 14.2507917,0 C11.9185417,0 10.0280417,1.89129167 10.0280417,4.22275 C10.0280417,4.55366667 10.0660417,4.87666667 10.1372917,5.184625 C6.62783333,5.008875 3.51658333,3.327375 1.43291667,0.771875 C1.07033333,1.39570833 0.862125,2.120875 0.862125,2.89591667 C0.862125,4.3605 1.60708333,5.65329167 2.73995833,6.410125 C2.04804167,6.38795833 1.3965,6.19795833 0.827291667,5.88208333 C0.827291667,5.90029167 0.827291667,5.91691667 0.827291667,5.935125 C0.827291667,7.98158333 2.282375,9.68841667 4.21483333,10.0755417 C3.86095833,10.172125 3.48729167,10.2235833 3.10175,10.2235833 C2.83020833,10.2235833 2.565,10.1966667 2.30770833,10.148375 C2.84525,11.8259167 4.40483333,13.0474583 6.25258333,13.0815 C4.80779167,14.214375 2.98695833,14.8896667 1.00779167,14.8896667 C0.667375,14.8896667 0.330916667,14.869875 -1.75785312e-16,14.8302917 C1.869125,16.0280833 4.08816667,16.727125 6.47345833,16.727125 C14.2412917,16.727125 18.4877917,10.2924583 18.4877917,4.712 C18.4877917,4.529125 18.4838333,4.34704167 18.4759167,4.16575 C19.301625,3.569625 20.0180833,2.82625 20.584125,1.97995833 Z" id="Path"></path>
                </g>
            </g>
        </g>
    </g>
</svg>